<svg width="396" height="92" viewBox="0 0 396 92" fill="none" xmlns="http://www.w3.org/2000/svg">
<path d="M148.257 7.92V66H139.457V27.84L124.177 66H115.697L100.417 28V66H91.8575V7.84H100.417L119.937 55.6L139.457 7.84L148.257 7.92ZM196.339 49.68H165.699C166.019 53.04 167.219 55.5467 169.299 57.2C171.433 58.8533 174.019 59.68 177.059 59.68C179.619 59.68 181.779 59.12 183.539 58C185.299 56.8267 186.686 55.2267 187.699 53.2L194.819 56.08C193.326 59.6 190.979 62.32 187.779 64.24C184.633 66.1067 181.033 67.04 176.979 67.04C174.099 67.04 171.459 66.56 169.059 65.6C166.713 64.5867 164.686 63.1733 162.979 61.36C161.273 59.5467 159.939 57.3867 158.979 54.88C158.073 52.32 157.619 49.4933 157.619 46.4C157.619 43.36 158.073 40.56 158.979 38C159.939 35.44 161.273 33.2533 162.979 31.44C164.686 29.5733 166.739 28.1333 169.139 27.12C171.539 26.1067 174.206 25.6 177.139 25.6C180.019 25.6 182.633 26.1067 184.979 27.12C187.379 28.08 189.406 29.4667 191.059 31.28C192.766 33.0933 194.073 35.28 194.979 37.84C195.886 40.3467 196.339 43.1733 196.339 46.32V49.68ZM187.699 43.6C187.486 40.0267 186.446 37.3333 184.579 35.52C182.713 33.6533 180.179 32.72 176.979 32.72C173.779 32.72 171.193 33.6533 169.219 35.52C167.299 37.3867 166.153 40.08 165.779 43.6H187.699ZM228.64 66C228.533 65.4667 228.427 64.8 228.32 64C228.213 63.2 228.107 62.24 228 61.12C226.88 62.88 225.227 64.32 223.04 65.44C220.853 66.5067 218.32 67.04 215.44 67.04C211.12 67.04 207.653 65.92 205.04 63.68C202.48 61.3867 201.2 58.2933 201.2 54.4C201.2 50.56 202.48 47.5467 205.04 45.36C207.653 43.1733 211.147 42.08 215.52 42.08H227.84V40.56C227.84 37.7867 227.04 35.76 225.44 34.48C223.893 33.2 221.76 32.56 219.04 32.56C214.187 32.56 210.747 34.5333 208.72 38.48L202.48 34.88C204.08 31.68 206.347 29.3333 209.28 27.84C212.213 26.3467 215.6 25.6 219.44 25.6C224.293 25.6 228.293 26.8533 231.44 29.36C234.587 31.8667 236.16 35.92 236.16 41.52V57.6C236.16 61.92 236.4 64.72 236.88 66H228.64ZM227.84 48.08H217.44C214.987 48.08 213.093 48.64 211.76 49.76C210.48 50.8267 209.84 52.3467 209.84 54.32C209.84 56.3467 210.507 57.8933 211.84 58.96C213.227 59.9733 215.12 60.48 217.52 60.48C220.453 60.48 222.907 59.5467 224.88 57.68C226.853 55.76 227.84 52.88 227.84 49.04V48.08ZM258.506 60.16C260.532 60.16 262.186 59.76 263.466 58.96C264.799 58.1067 265.466 56.8 265.466 55.04C265.466 52.64 263.919 51.0933 260.826 50.4L255.226 48.88C247.919 46.8533 244.266 43.0933 244.266 37.6C244.266 35.84 244.586 34.24 245.226 32.8C245.919 31.3067 246.879 30.0267 248.106 28.96C249.332 27.8933 250.826 27.0667 252.586 26.48C254.346 25.8933 256.319 25.6 258.506 25.6C262.399 25.6 265.679 26.48 268.346 28.24C271.012 29.9467 272.612 32.4 273.146 35.6L265.546 37.44C265.332 35.8933 264.586 34.6933 263.306 33.84C262.079 32.9333 260.559 32.48 258.746 32.48C256.879 32.48 255.359 32.9333 254.186 33.84C253.066 34.7467 252.506 35.9467 252.506 37.44C252.506 38.72 252.932 39.76 253.786 40.56C254.639 41.3067 255.946 41.8933 257.706 42.32L263.226 43.76C266.746 44.6667 269.412 46.1067 271.226 48.08C273.039 50 273.946 52.3467 273.946 55.12C273.946 58.8 272.586 61.7067 269.866 63.84C267.199 65.9733 263.439 67.04 258.586 67.04C254.052 67.04 250.479 66.0533 247.866 64.08C245.252 62.1067 243.706 59.4933 243.226 56.24L250.906 54.88C251.119 56.48 251.866 57.76 253.146 58.72C254.479 59.68 256.266 60.16 258.506 60.16ZM310.188 66C309.868 64.72 309.628 63.1467 309.468 61.28C308.348 63.1467 306.748 64.5867 304.668 65.6C302.588 66.56 300.188 67.04 297.468 67.04C293.095 67.04 289.335 65.76 286.188 63.2C283.041 60.5333 281.468 56.2933 281.468 50.48V26.64H290.028V49.04C290.028 52.9333 290.935 55.6267 292.748 57.12C294.615 58.6667 296.775 59.44 299.228 59.44C300.615 59.44 301.895 59.2267 303.068 58.8C304.295 58.32 305.361 57.6267 306.268 56.72C307.228 55.8133 307.975 54.6933 308.508 53.36C309.041 52.0267 309.308 50.48 309.308 48.72V26.72H317.868V58.8C317.868 59.8667 317.921 61.12 318.028 62.56C318.188 63.9467 318.375 65.0933 318.588 66H310.188ZM347.061 26.16C348.501 26.16 349.995 26.3467 351.541 26.72V34.56C350.101 34.1867 348.661 34 347.221 34C343.861 34 341.248 35.04 339.381 37.12C337.568 39.2 336.661 42.08 336.661 45.76V66H328.021V26.72H335.941L336.421 31.52C337.221 29.76 338.581 28.4267 340.501 27.52C342.475 26.6133 344.661 26.16 347.061 26.16ZM392.933 49.68H362.293C362.613 53.04 363.813 55.5467 365.893 57.2C368.026 58.8533 370.613 59.68 373.653 59.68C376.213 59.68 378.373 59.12 380.133 58C381.893 56.8267 383.28 55.2267 384.293 53.2L391.413 56.08C389.92 59.6 387.573 62.32 384.373 64.24C381.226 66.1067 377.626 67.04 373.573 67.04C370.693 67.04 368.053 66.56 365.653 65.6C363.306 64.5867 361.28 63.1733 359.573 61.36C357.866 59.5467 356.533 57.3867 355.573 54.88C354.666 52.32 354.213 49.4933 354.213 46.4C354.213 43.36 354.666 40.56 355.573 38C356.533 35.44 357.866 33.2533 359.573 31.44C361.28 29.5733 363.333 28.1333 365.733 27.12C368.133 26.1067 370.8 25.6 373.733 25.6C376.613 25.6 379.226 26.1067 381.573 27.12C383.973 28.08 386 29.4667 387.653 31.28C389.36 33.0933 390.666 35.28 391.573 37.84C392.48 40.3467 392.933 43.1733 392.933 46.32V49.68ZM384.293 43.6C384.08 40.0267 383.04 37.3333 381.173 35.52C379.306 33.6533 376.773 32.72 373.573 32.72C370.373 32.72 367.786 33.6533 365.813 35.52C363.893 37.3867 362.746 40.08 362.373 43.6H384.293Z" fill="black"/>
<circle cx="33" cy="37" r="33" fill="url(#paint0_angular)"/>
<defs>
<radialGradient id="paint0_angular" cx="0" cy="0" r="1" gradientUnits="userSpaceOnUse" gradientTransform="translate(33 37) rotate(90) scale(33)">
<stop/>
<stop offset="1" stop-color="white"/>
</radialGradient>
</defs>
</svg>
