<svg width="298" height="59" viewBox="0 0 298 59" fill="none" xmlns="http://www.w3.org/2000/svg">
<path d="M55.4419 0.159996V58H47.6019V17.84L31.4419 58H23.8419L7.68187 18.08V58H0.0818723V0.159996H7.68187L27.6819 48.72L47.6019 0.159996H55.4419ZM103.301 41.52H72.2606C72.5806 45.2 73.834 47.9467 76.0206 49.76C78.2606 51.5733 80.9806 52.48 84.1806 52.48C86.9006 52.48 89.194 51.8667 91.0606 50.64C92.9273 49.4133 94.3673 47.7333 95.3806 45.6L101.701 48.16C100.207 51.5733 97.8873 54.24 94.7406 56.16C91.6473 58.0267 88.1006 58.96 84.1006 58.96C81.274 58.96 78.6873 58.48 76.3406 57.52C73.994 56.5067 71.9673 55.12 70.2606 53.36C68.6073 51.5467 67.3006 49.3867 66.3406 46.88C65.434 44.3733 64.9806 41.6 64.9806 38.56C64.9806 35.52 65.434 32.72 66.3406 30.16C67.2473 27.6 68.5273 25.4133 70.1806 23.6C71.8873 21.7333 73.9406 20.2933 76.3406 19.28C78.7406 18.2667 81.4073 17.76 84.3406 17.76C87.1673 17.76 89.7273 18.2667 92.0206 19.28C94.3673 20.24 96.3673 21.6267 98.0206 23.44C99.7273 25.2 101.034 27.36 101.941 29.92C102.847 32.4267 103.301 35.2533 103.301 38.4V41.52ZM95.6206 36.08C95.4073 32.1867 94.2873 29.2267 92.2606 27.2C90.234 25.1733 87.5406 24.16 84.1806 24.16C80.8206 24.16 78.1006 25.2 76.0206 27.28C73.9406 29.3067 72.714 32.24 72.3406 36.08H95.6206ZM136.089 58C135.982 57.4133 135.875 56.6933 135.769 55.84C135.662 54.9333 135.555 53.8933 135.449 52.72C134.329 54.5867 132.622 56.1067 130.329 57.28C128.089 58.4 125.502 58.96 122.569 58.96C118.249 58.96 114.782 57.8667 112.169 55.68C109.609 53.44 108.329 50.4 108.329 46.56C108.329 42.72 109.609 39.7067 112.169 37.52C114.782 35.3333 118.275 34.24 122.649 34.24H135.289V32.64C135.289 29.6 134.462 27.4133 132.809 26.08C131.155 24.6933 128.889 24 126.009 24C120.889 24 117.315 26.08 115.289 30.24L109.689 26.96C111.289 23.8667 113.502 21.5733 116.329 20.08C119.209 18.5333 122.569 17.76 126.409 17.76C128.809 17.76 130.995 18.0533 132.969 18.64C134.995 19.2267 136.702 20.16 138.089 21.44C139.529 22.72 140.649 24.3467 141.449 26.32C142.249 28.24 142.649 30.56 142.649 33.28V49.92C142.649 51.52 142.702 53.0933 142.809 54.64C142.969 56.1867 143.155 57.3067 143.369 58H136.089ZM135.369 39.76H124.329C121.609 39.76 119.529 40.3733 118.089 41.6C116.649 42.7733 115.929 44.4 115.929 46.48C115.929 48.6133 116.675 50.2667 118.169 51.44C119.662 52.56 121.689 53.12 124.249 53.12C127.609 53.12 130.302 52.08 132.329 50C134.355 47.8667 135.369 44.8 135.369 40.8V39.76ZM165.156 52.8C167.29 52.8 169.076 52.3733 170.516 51.52C171.956 50.6133 172.676 49.2 172.676 47.28C172.676 44.7733 170.996 43.04 167.636 42.08L161.876 40.56C154.783 38.7467 151.236 35.04 151.236 29.44C151.236 27.7867 151.556 26.2667 152.196 24.88C152.836 23.44 153.743 22.2133 154.916 21.2C156.143 20.1333 157.61 19.3067 159.316 18.72C161.076 18.08 163.023 17.76 165.156 17.76C168.996 17.76 172.196 18.64 174.756 20.4C177.37 22.16 178.916 24.5867 179.396 27.68L172.676 29.2C172.463 27.6 171.69 26.3467 170.356 25.44C169.023 24.48 167.37 24 165.396 24C163.316 24 161.663 24.5067 160.436 25.52C159.21 26.5333 158.596 27.84 158.596 29.44C158.596 32 160.41 33.76 164.036 34.72L169.716 36.24C173.13 37.1467 175.716 38.5333 177.476 40.4C179.29 42.2667 180.196 44.56 180.196 47.28C180.196 50.8533 178.863 53.7067 176.196 55.84C173.583 57.92 169.93 58.96 165.236 58.96C160.916 58.96 157.423 58.0267 154.756 56.16C152.143 54.2933 150.623 51.76 150.196 48.56L157.076 47.28C157.29 48.9867 158.09 50.3467 159.476 51.36C160.863 52.32 162.756 52.8 165.156 52.8ZM217.008 58C216.795 57.1467 216.635 56.32 216.528 55.52C216.475 54.6667 216.421 53.7867 216.368 52.88C215.195 54.8 213.515 56.2933 211.328 57.36C209.195 58.4267 206.768 58.96 204.048 58.96C199.728 58.96 195.995 57.68 192.848 55.12C189.808 52.56 188.288 48.3733 188.288 42.56V18.88H195.888V41.28C195.888 45.2267 196.848 48.0533 198.768 49.76C200.635 51.4133 202.901 52.24 205.568 52.24C208.608 52.24 211.141 51.28 213.168 49.36C215.195 47.3867 216.208 44.56 216.208 40.88V18.88H223.728V50.8C223.728 51.92 223.808 53.2 223.968 54.64C224.128 56.0267 224.315 57.1467 224.528 58H217.008ZM252.454 18.4C253.894 18.4 255.334 18.56 256.774 18.88V25.84C255.281 25.52 253.868 25.36 252.534 25.36C249.174 25.36 246.561 26.4 244.694 28.48C242.828 30.56 241.894 33.44 241.894 37.12V58H234.294V18.96H241.334L241.734 23.76C242.534 22 243.894 20.6667 245.814 19.76C247.788 18.8533 250.001 18.4 252.454 18.4ZM297.863 41.52H266.823C267.143 45.2 268.396 47.9467 270.583 49.76C272.823 51.5733 275.543 52.48 278.743 52.48C281.463 52.48 283.756 51.8667 285.623 50.64C287.49 49.4133 288.93 47.7333 289.943 45.6L296.263 48.16C294.77 51.5733 292.45 54.24 289.303 56.16C286.21 58.0267 282.663 58.96 278.663 58.96C275.836 58.96 273.25 58.48 270.903 57.52C268.556 56.5067 266.53 55.12 264.823 53.36C263.17 51.5467 261.863 49.3867 260.903 46.88C259.996 44.3733 259.543 41.6 259.543 38.56C259.543 35.52 259.996 32.72 260.903 30.16C261.81 27.6 263.09 25.4133 264.743 23.6C266.45 21.7333 268.503 20.2933 270.903 19.28C273.303 18.2667 275.97 17.76 278.903 17.76C281.73 17.76 284.29 18.2667 286.583 19.28C288.93 20.24 290.93 21.6267 292.583 23.44C294.29 25.2 295.596 27.36 296.503 29.92C297.41 32.4267 297.863 35.2533 297.863 38.4V41.52ZM290.183 36.08C289.97 32.1867 288.85 29.2267 286.823 27.2C284.796 25.1733 282.103 24.16 278.743 24.16C275.383 24.16 272.663 25.2 270.583 27.28C268.503 29.3067 267.276 32.24 266.903 36.08H290.183Z" fill="black"/>
</svg>
