<?xml version="1.0" standalone="no"?>
<!DOCTYPE svg PUBLIC "-//W3C//DTD SVG 20010904//EN"
 "http://www.w3.org/TR/2001/REC-SVG-20010904/DTD/svg10.dtd">
<svg version="1.0" xmlns="http://www.w3.org/2000/svg"
 width="512.000000pt" height="512.000000pt" viewBox="0 0 512.000000 512.000000"
 preserveAspectRatio="xMidYMid meet">
<metadata>
Created by potrace 1.11, written by Peter Selinger 2001-2013
</metadata>
<g transform="translate(0.000000,512.000000) scale(0.100000,-0.100000)"
fill="#000000" stroke="none">
<path d="M2516 5062 c-2 -1 -16 -4 -33 -6 -16 -2 -46 -11 -66 -20 -21 -8 -41
-16 -45 -16 -4 -1 -14 -7 -22 -14 -8 -7 -53 -34 -100 -61 -47 -26 -96 -55
-110 -64 -14 -8 -28 -16 -32 -16 -4 0 -17 -8 -28 -17 -11 -10 -25 -18 -31 -18
-5 0 -19 -9 -31 -20 -12 -10 -25 -17 -30 -14 -4 3 -8 0 -8 -5 0 -6 -4 -11 -9
-11 -12 0 -184 -101 -192 -113 -3 -5 -10 -9 -15 -8 -13 0 -132 -68 -139 -79
-4 -6 -11 -8 -16 -5 -5 4 -12 -1 -15 -9 -3 -9 -10 -13 -15 -11 -4 3 -17 -3
-29 -15 -11 -11 -21 -20 -22 -19 -9 2 -53 -21 -120 -62 -42 -26 -79 -45 -82
-41 -3 3 -6 0 -6 -7 0 -7 -4 -9 -10 -6 -5 3 -10 1 -10 -4 0 -6 -7 -11 -15 -11
-8 0 -15 -4 -15 -10 0 -5 -5 -10 -10 -10 -6 0 -29 -12 -53 -27 -23 -14 -48
-26 -54 -26 -7 0 -13 -4 -13 -9 0 -5 -17 -16 -37 -26 -21 -9 -40 -20 -43 -23
-3 -3 -32 -20 -65 -38 -33 -18 -66 -38 -73 -43 -6 -6 -12 -7 -12 -3 0 5 -8 -1
-18 -11 -9 -10 -24 -20 -32 -22 -8 -2 -17 -8 -18 -13 -2 -5 -7 -7 -12 -4 -4 2
-19 -6 -34 -20 -14 -13 -26 -22 -26 -19 0 7 -63 -29 -72 -41 -5 -7 -8 -7 -8 0
0 7 -3 7 -8 0 -9 -13 -58 -43 -94 -58 -16 -6 -28 -15 -28 -19 0 -4 -7 -8 -15
-8 -8 0 -15 -5 -15 -12 0 -6 -3 -8 -6 -5 -4 4 -20 -5 -36 -18 -16 -14 -34 -25
-39 -25 -6 0 -7 -4 -4 -10 3 -5 -2 -10 -11 -10 -10 0 -15 -3 -11 -6 3 -3 -4
-17 -16 -31 -12 -13 -22 -29 -22 -34 0 -5 -6 -13 -13 -18 -8 -5 -13 -10 -12
-12 2 -5 -10 -59 -17 -79 -8 -19 -10 -2270 -3 -2270 3 0 7 -12 8 -26 2 -32 61
-144 79 -151 7 -3 10 -9 7 -14 -3 -5 0 -9 6 -9 6 0 21 -11 34 -25 13 -13 26
-22 29 -18 4 3 7 1 7 -5 0 -10 21 -21 45 -23 6 0 14 -7 18 -15 4 -8 12 -14 17
-14 5 0 39 -18 75 -40 36 -22 70 -40 75 -40 6 0 10 -4 10 -8 0 -5 16 -14 35
-22 19 -8 35 -17 35 -22 0 -4 4 -8 10 -8 5 0 42 -19 82 -43 40 -24 80 -46 88
-50 8 -4 33 -18 55 -32 22 -14 55 -32 73 -41 17 -9 32 -20 32 -25 0 -5 3 -8 8
-7 10 3 75 -32 84 -46 4 -6 8 -7 8 -3 0 4 17 -3 37 -17 20 -14 40 -23 45 -20
4 3 8 -2 8 -10 0 -9 3 -15 8 -14 8 1 45 -13 52 -21 3 -3 25 -17 50 -30 25 -14
51 -31 58 -38 8 -7 18 -11 23 -8 5 4 9 2 9 -3 0 -5 8 -12 18 -15 23 -8 76 -40
80 -50 2 -4 8 -5 13 -1 5 3 9 0 9 -5 0 -6 6 -11 14 -11 8 0 22 -7 30 -16 9 -8
16 -12 16 -7 0 4 7 -1 16 -12 8 -11 17 -19 19 -18 8 4 39 -10 53 -24 7 -7 20
-13 28 -13 8 0 14 -4 14 -9 0 -5 15 -14 33 -22 17 -7 34 -15 37 -19 3 -3 22
-14 43 -25 20 -11 37 -24 37 -28 0 -5 6 -7 13 -4 8 3 20 -3 27 -13 7 -10 19
-16 27 -13 7 3 13 1 13 -4 0 -6 18 -18 40 -29 22 -10 40 -22 40 -25 0 -3 16
-11 35 -19 19 -8 35 -17 35 -22 0 -4 9 -8 20 -8 11 0 20 -4 20 -10 0 -5 7 -10
15 -10 8 0 15 -4 15 -9 0 -5 8 -11 18 -15 9 -3 37 -17 62 -30 24 -14 48 -22
52 -20 4 3 8 0 8 -7 0 -8 5 -7 17 2 11 10 14 10 9 1 -5 -9 4 -12 36 -13 24 -1
46 -1 49 -1 4 1 23 2 43 4 20 1 36 6 36 11 0 4 4 5 10 2 11 -7 81 23 92 39 4
6 8 7 8 3 0 -5 12 1 26 12 15 12 33 21 41 21 7 0 16 7 19 15 4 8 10 13 14 10
5 -3 14 1 22 8 7 7 24 18 38 24 42 21 109 60 125 73 8 7 15 9 15 4 0 -5 5 -1
11 9 6 9 14 15 20 12 5 -4 9 -1 9 4 0 6 6 11 14 11 7 0 19 7 26 15 6 8 15 14
18 12 4 -1 21 7 37 17 17 11 46 29 65 41 19 12 45 25 58 29 12 4 22 12 22 18
0 6 3 8 6 5 4 -4 21 4 38 16 17 12 33 22 36 22 3 0 19 10 35 21 17 12 32 22
35 21 3 0 24 12 47 26 24 15 45 27 48 27 2 0 29 16 59 35 30 19 59 35 64 35 5
0 15 7 22 15 7 8 16 12 21 9 5 -3 9 0 9 5 0 6 7 11 15 11 8 0 15 4 15 9 0 5
14 12 30 16 17 4 28 10 26 14 -3 4 10 13 27 20 18 8 44 22 58 32 14 10 29 16
33 12 3 -3 6 -1 6 5 0 7 7 12 15 12 8 0 15 4 15 9 0 5 12 14 28 20 31 12 85
43 105 60 8 6 17 8 20 4 4 -3 7 -2 7 4 0 5 18 18 40 28 22 10 40 22 40 27 0 5
5 6 10 3 6 -3 10 -3 10 2 0 4 10 13 23 18 53 25 113 61 128 77 9 10 19 15 22
12 3 -4 18 3 33 15 15 11 33 21 40 21 8 0 14 5 14 11 0 5 4 8 9 5 5 -4 11 -3
13 2 1 4 26 22 54 39 59 36 104 76 104 92 0 6 4 11 8 11 12 0 43 65 52 105 1
6 7 16 13 24 10 12 9 13 -3 6 -13 -7 -13 -6 -2 7 10 12 12 251 12 1142 0 706
-4 1126 -10 1126 -5 0 -7 7 -4 15 4 8 1 22 -6 30 -9 11 -10 15 -1 15 8 0 7 6
-3 16 -9 8 -16 19 -16 24 0 24 -81 120 -100 120 -5 0 -10 5 -10 10 0 6 -16 18
-35 27 -19 9 -35 21 -35 26 0 5 -7 7 -15 3 -8 -3 -15 -1 -15 4 0 6 -7 10 -15
10 -8 0 -15 3 -15 8 0 4 -10 12 -23 18 -65 33 -92 48 -97 54 -7 9 -68 41 -76
39 -4 0 -10 5 -15 12 -4 7 -15 14 -25 15 -9 2 -20 7 -23 12 -3 5 -26 20 -51
32 -25 12 -47 25 -50 29 -5 6 -39 26 -93 54 -12 7 -29 16 -37 22 -8 5 -21 10
-27 11 -7 1 -20 9 -29 18 -8 9 -19 16 -24 16 -5 0 -15 6 -22 13 -16 15 -70 41
-80 39 -5 -1 -8 1 -8 6 0 4 -17 16 -37 27 -21 11 -40 22 -43 25 -3 3 -22 14
-42 25 -21 11 -38 24 -38 28 0 5 -7 7 -15 3 -8 -3 -15 -1 -15 4 0 6 -7 10 -15
10 -8 0 -15 4 -15 8 0 5 -22 19 -50 32 -27 13 -50 27 -50 31 0 6 -22 15 -44
17 -5 0 -12 4 -15 9 -6 9 -81 57 -91 59 -7 1 -64 34 -122 72 -27 17 -56 32
-64 32 -8 0 -14 3 -14 8 0 4 -15 13 -32 21 -18 8 -35 17 -38 21 -3 4 -41 26
-85 50 -44 23 -84 48 -90 55 -11 13 -12 14 -45 22 -11 3 -20 9 -20 14 0 5 -4
9 -10 9 -5 0 -32 14 -60 30 -28 17 -57 30 -65 30 -8 0 -15 5 -15 11 0 5 -4 8
-9 4 -5 -3 -12 -1 -15 3 -3 5 -18 10 -33 11 -15 0 -45 2 -66 4 -21 1 -40 1
-41 -1z"/>
</g>
</svg>
